<svg width="96" height="97" viewBox="0 0 96 97" fill="none" xmlns="http://www.w3.org/2000/svg">
<path fill-rule="evenodd" clip-rule="evenodd" d="M81.8842 74.305C80.4273 74.305 79.072 74.6946 77.8748 75.3327L59.4711 56.8612C60.64 55.2236 61.4701 53.3431 61.8541 51.2932H68.2522C68.8364 52.9407 69.9192 54.3653 71.3502 55.3692C72.7811 56.3731 74.4892 56.9064 76.2372 56.8951C80.9186 56.8951 84.7078 53.2132 84.7078 48.6617C84.7078 44.1101 80.9186 40.4283 76.2372 40.4283C74.4521 40.4174 72.7098 40.9745 71.2622 42.019C69.8146 43.0636 68.7368 44.5415 68.1845 46.2391H61.8654C61.5327 44.3117 60.7976 42.4761 59.7082 40.8518L78.2871 22.2052C79.3826 22.7078 80.5911 23.0127 81.8842 23.0127C86.5657 23.0127 90.3548 19.3308 90.3548 14.7793C90.3548 10.2278 86.5657 6.5459 81.8842 6.5459C77.2085 6.5459 73.4249 10.2278 73.4249 14.7793C73.4249 16.2532 73.8485 17.6198 74.5487 18.817L56.1619 37.2772C54.4836 36.085 52.5633 35.2772 50.5374 34.9111V28.2419C53.9652 27.1915 56.4725 24.1139 56.4725 20.4264C56.4725 15.8748 52.6833 12.193 48.0019 12.193C43.3261 12.193 39.5426 15.8748 39.5426 20.4264C39.5426 24.1252 42.0555 27.2198 45.5172 28.2588V34.9054C43.4617 35.2668 41.5642 36.0631 39.921 37.2094L21.5115 18.7379C22.1779 17.5577 22.5901 16.225 22.5901 14.785C22.5901 10.2334 18.801 6.55155 14.1195 6.55155C9.44378 6.55155 5.66025 10.2334 5.66025 14.785C5.66025 19.3365 9.44378 23.0184 14.1195 23.0184C15.441 23.0184 16.689 22.6965 17.8014 22.1713L36.352 40.7897C35.2452 42.3991 34.4885 44.2513 34.1327 46.2504H27.8193C27.2667 44.5519 26.188 43.0733 24.7393 42.0287C23.2906 40.984 21.547 40.4274 19.761 40.4395C15.0852 40.4395 11.3017 44.1214 11.3017 48.673C11.3017 53.2245 15.0852 56.9064 19.761 56.9064C23.488 56.9064 26.6221 54.5572 27.7459 51.3045H34.144C34.528 53.3883 35.392 55.297 36.5948 56.9515L18.2193 75.3948C16.9619 74.7008 15.5502 74.3338 14.1139 74.3275C9.43813 74.3275 5.6546 78.0094 5.6546 82.561C5.6546 87.1125 9.43813 90.7944 14.1139 90.7944C18.7953 90.7944 22.5845 87.1125 22.5845 82.561C22.5845 81.2847 22.2626 80.0932 21.7374 79.0259L40.2315 60.4527C41.7958 61.4918 43.5859 62.1977 45.5115 62.5365V69.0814C42.0555 70.1205 39.537 73.2094 39.537 76.9139C39.537 81.4654 43.3205 85.1473 47.9962 85.1473C52.6777 85.1473 56.4668 81.4654 56.4668 76.9139C56.4668 73.232 53.9652 70.1487 50.5318 69.0984V62.5308C52.4744 62.1807 54.2758 61.4579 55.8513 60.4019L74.3115 78.9299C73.7297 80.0521 73.4239 81.2969 73.4193 82.561C73.4193 87.1125 77.2028 90.7944 81.8786 90.7944C86.56 90.7944 90.3492 87.1125 90.3492 82.561C90.3492 78.0094 86.5657 74.305 81.8842 74.305Z" fill="#00E3A5"/>
</svg>
