<svg width="70" height="60" viewBox="0 0 70 60" fill="none" xmlns="http://www.w3.org/2000/svg">
<g clip-path="url(#clip0_1_374)">
<path d="M60.52 59.999H8.79843C6.41888 59.999 4.38728 59.162 2.70363 57.4879C1.01998 55.8138 0.178162 53.7937 0.178162 51.4276V17.1419C0.178162 15.9812 0.593461 14.9767 1.42406 14.1285C2.25466 13.2803 3.27607 12.8562 4.48829 12.8562H36.8143C36.8143 12.5437 37.0725 11.9187 37.5888 10.9812C38.1051 10.0437 38.6102 9.17313 39.1041 8.36956L39.9122 7.23117C40.2265 6.38295 40.855 5.67983 41.7979 5.12179C42.7407 4.56376 43.7285 4.28474 44.7611 4.28474H60.9241C62.0016 4.28474 63.0118 4.56376 63.9547 5.12179C64.8975 5.67983 65.5261 6.38295 65.8403 7.23117C68.0403 10.0883 69.1403 11.9633 69.1403 12.8562V51.4276C69.1403 53.7937 68.2985 55.8138 66.6148 57.4879C64.9312 59.162 62.8996 59.999 60.52 59.999ZM43.2795 29.999C43.2795 27.633 42.4377 25.6129 40.754 23.9388C39.0704 22.2646 37.0388 21.4276 34.6592 21.4276C32.2797 21.4276 30.2481 22.2646 28.5644 23.9388C26.8808 25.6129 26.039 27.633 26.039 29.999C26.039 31.7401 26.5441 33.3361 27.5542 34.787C28.5644 36.2379 29.8777 37.2758 31.494 37.9008L26.039 51.4276H43.2795L37.8245 37.9008C39.4408 37.2758 40.754 36.2379 41.7642 34.787C42.7744 33.3361 43.2795 31.7401 43.2795 29.999ZM3.27607 2.94545C3.59035 2.09724 4.21891 1.39411 5.16175 0.836077C6.1046 0.278041 7.09233 -0.000976562 8.12497 -0.000976562H24.288C25.3655 -0.000976562 26.3757 0.278041 27.3185 0.836077C28.2614 1.39411 28.9124 2.09724 29.2716 2.94545L32.5042 8.57045H0.178162L3.27607 2.94545Z" fill="url(#paint0_linear_1_374)"/>
</g>
<defs>
<linearGradient id="paint0_linear_1_374" x1="34.6592" y1="-0.000980013" x2="124.651" y2="29.2729" gradientUnits="userSpaceOnUse">
<stop stop-color="#05D2FF"/>
<stop offset="0.609375" stop-color="#253FE0" stop-opacity="0.619792"/>
<stop offset="1" stop-color="#060ED0" stop-opacity="0.28"/>
</linearGradient>
<clipPath id="clip0_1_374">
<rect width="69.0411" height="60" fill="white" transform="translate(0.138672 -0.000976562)"/>
</clipPath>
</defs>
</svg>
