<svg width="153" height="115" viewBox="0 0 153 115" fill="none" xmlns="http://www.w3.org/2000/svg">
<path d="M70.3631 84.8862C70.541 88.9327 69.8041 92.9677 68.2047 96.7041C66.6053 100.441 64.1828 103.786 61.1097 106.503L61.0854 106.522C54.724 112.035 46.4392 114.95 37.9423 114.664L37.9957 114.664C32.8598 114.935 27.7257 114.098 22.9582 112.212C18.1907 110.325 13.9067 107.436 10.4106 103.748L10.3911 103.729C3.38203 95.6003 -0.192982 85.1655 0.394173 74.5502L0.389306 74.65C0.0635773 63.6261 2.15998 52.6621 6.53717 42.4972L6.34276 43.0055C9.83773 35.0369 14.6849 27.7026 20.6797 21.3122L20.6262 21.3692C25.5814 16.1153 31.3231 11.6261 37.6555 8.05496L38.0054 7.87446C42.7948 5.17401 47.7932 2.84414 52.9547 0.906207L53.7129 0.65446L68.944 25.782C62.6147 28.2779 57.0591 32.3409 52.8235 37.5715L52.7603 37.6522C48.5428 42.5623 45.8976 48.5773 45.1545 54.947L45.1399 55.099C48.4542 55.1801 51.7135 55.9448 54.7044 57.3429C57.6952 58.7411 60.35 60.7411 62.4948 63.212L62.524 63.2452C67.9774 69.1799 70.7985 76.987 70.368 84.9527L70.3728 84.8815L70.3631 84.8862ZM152.73 84.8862C152.905 88.9328 152.166 92.9675 150.566 96.7036C148.966 100.44 146.544 103.786 143.472 106.503L143.447 106.522C137.087 112.037 128.801 114.952 120.304 114.664L120.358 114.664C115.222 114.937 110.087 114.1 105.319 112.213C100.552 110.327 96.2677 107.437 92.7724 103.748L92.753 103.725C85.741 95.5953 82.1656 85.1578 82.756 74.5407L82.7512 74.6405C82.4254 63.6166 84.5218 52.6526 88.899 42.4877L88.7046 42.996C92.1979 35.0276 97.0434 27.6933 103.037 21.3027L102.983 21.3597C107.94 16.1056 113.683 11.6165 120.017 8.04545L120.367 7.86495C125.156 5.16259 130.154 2.83266 135.317 0.896706L136.075 0.644958L151.301 25.7725C144.971 28.2714 139.415 32.3377 135.18 37.5714L135.117 37.6522C130.9 42.5623 128.255 48.5773 127.511 54.947L127.497 55.099C130.81 55.1796 134.068 55.9441 137.057 57.3424C140.047 58.7406 142.7 60.7409 144.842 63.212L144.871 63.2452C150.331 69.1754 153.157 76.9816 152.73 84.948L152.735 84.8767L152.73 84.8862Z" fill="#0B4137"/>
</svg>
