<svg width="81" height="81" viewBox="0 0 81 81" fill="none" xmlns="http://www.w3.org/2000/svg">
<path d="M37.3268 6.96606L61.6535 14.5661C62.332 14.7779 62.925 15.201 63.3459 15.7737C63.7669 16.3464 63.9938 17.0386 63.9935 17.7494V23.6327H70.6602C71.5442 23.6327 72.3921 23.9839 73.0172 24.609C73.6423 25.2342 73.9935 26.082 73.9935 26.9661V33.6327H30.6602V26.9661C30.6602 26.082 31.0114 25.2342 31.6365 24.609C32.2616 23.9839 33.1094 23.6327 33.9935 23.6327H57.3268V20.1994L37.3268 13.9461L17.3268 20.1994V44.8794C17.3263 46.9202 17.7943 48.9338 18.6947 50.7652C19.5951 52.5966 20.9038 54.1968 22.5202 55.4427L23.1502 55.8961L37.3268 65.5661L49.9335 56.9661H33.9935C33.1094 56.9661 32.2616 56.6149 31.6365 55.9898C31.0114 55.3646 30.6602 54.5168 30.6602 53.6327V40.2994H73.9935V53.6327C73.9935 54.5168 73.6423 55.3646 73.0172 55.9898C72.3921 56.6149 71.5442 56.9661 70.6602 56.9661L59.9268 56.9694C58.6368 58.6694 57.0702 60.1694 55.2602 61.4027L37.3268 73.6327L19.3935 61.4061C16.7019 59.5709 14.4993 57.106 12.9773 54.2258C11.4553 51.3455 10.6598 48.1371 10.6602 44.8794V17.7494C10.6606 17.0392 10.8878 16.3477 11.3087 15.7757C11.7296 15.2037 12.3222 14.781 13.0002 14.5694L37.3268 6.96606Z" fill="url(#paint0_linear_1_376)"/>
<defs>
<linearGradient id="paint0_linear_1_376" x1="42.3268" y1="6.96606" x2="127.557" y2="29.882" gradientUnits="userSpaceOnUse">
<stop stop-color="#FD5A14"/>
<stop offset="0.609375" stop-color="#FFF06B" stop-opacity="0.59"/>
<stop offset="1" stop-color="#060ED0" stop-opacity="0.28"/>
</linearGradient>
</defs>
</svg>
