<svg width="65" height="64" viewBox="0 0 65 64" fill="none" xmlns="http://www.w3.org/2000/svg">
<g clip-path="url(#clip0_1_378)">
<path d="M24.6602 23.9989H40.6602V21.3323C40.6602 19.2105 39.8173 17.1757 38.317 15.6754C36.8167 14.1751 34.7819 13.3323 32.6602 13.3323C30.5384 13.3323 28.5036 14.1751 27.0033 15.6754C25.503 17.1757 24.6602 19.2105 24.6602 21.3323V23.9989Z" fill="url(#paint0_linear_1_378)"/>
<path d="M20.6602 34.6657H44.6602V31.999H20.6602V34.6657Z" fill="url(#paint1_linear_1_378)"/>
<path d="M44.6602 41.3324H20.6602V38.6658H44.6602V41.3324Z" fill="url(#paint2_linear_1_378)"/>
<path d="M20.6602 47.999H44.6602V45.3323H20.6602V47.999Z" fill="url(#paint3_linear_1_378)"/>
<path fill-rule="evenodd" clip-rule="evenodd" d="M0.660156 -0.000976562H64.6602V63.999H0.660156V-0.000976562ZM15.3268 23.999C14.6196 23.999 13.9413 24.28 13.4412 24.7801C12.9411 25.2802 12.6602 25.9584 12.6602 26.6657V53.3324C12.6602 54.0396 12.9411 54.7179 13.4412 55.218C13.9413 55.7181 14.6196 55.999 15.3268 55.999H49.9935C50.7007 55.999 51.379 55.7181 51.8791 55.218C52.3792 54.7179 52.6602 54.0396 52.6602 53.3324V26.6657C52.6602 25.9584 52.3792 25.2802 51.8791 24.7801C51.379 24.28 50.7007 23.999 49.9935 23.999H45.9935V21.3324C45.9935 13.9684 40.0242 7.99902 32.6602 7.99902C25.2962 7.99902 19.3268 13.9684 19.3268 21.3324V23.999H15.3268Z" fill="url(#paint4_linear_1_378)"/>
</g>
<defs>
<linearGradient id="paint0_linear_1_378" x1="32.6602" y1="13.3323" x2="52.2229" y2="21.6373" gradientUnits="userSpaceOnUse">
<stop stop-color="#00DD9C"/>
<stop offset="0.609375" stop-color="#253FE0" stop-opacity="0.619792"/>
<stop offset="1" stop-color="#060ED0" stop-opacity="0.28"/>
</linearGradient>
<linearGradient id="paint1_linear_1_378" x1="32.6602" y1="31.999" x2="37.2851" y2="43.7797" gradientUnits="userSpaceOnUse">
<stop stop-color="#00DD9C"/>
<stop offset="0.609375" stop-color="#253FE0" stop-opacity="0.619792"/>
<stop offset="1" stop-color="#060ED0" stop-opacity="0.28"/>
</linearGradient>
<linearGradient id="paint2_linear_1_378" x1="32.6602" y1="38.6658" x2="37.2851" y2="50.4464" gradientUnits="userSpaceOnUse">
<stop stop-color="#00DD9C"/>
<stop offset="0.609375" stop-color="#253FE0" stop-opacity="0.619792"/>
<stop offset="1" stop-color="#060ED0" stop-opacity="0.28"/>
</linearGradient>
<linearGradient id="paint3_linear_1_378" x1="32.6602" y1="45.3323" x2="37.2852" y2="57.113" gradientUnits="userSpaceOnUse">
<stop stop-color="#00DD9C"/>
<stop offset="0.609375" stop-color="#253FE0" stop-opacity="0.619792"/>
<stop offset="1" stop-color="#060ED0" stop-opacity="0.28"/>
</linearGradient>
<linearGradient id="paint4_linear_1_378" x1="32.6602" y1="-0.000980243" x2="118.165" y2="24.1987" gradientUnits="userSpaceOnUse">
<stop stop-color="#00DD9C"/>
<stop offset="0.609375" stop-color="#253FE0" stop-opacity="0.619792"/>
<stop offset="1" stop-color="#060ED0" stop-opacity="0.28"/>
</linearGradient>
<clipPath id="clip0_1_378">
<rect width="64" height="64" fill="white" transform="translate(0.660156 -0.000976562)"/>
</clipPath>
</defs>
</svg>
