<!DOCTYPE svg PUBLIC "-//W3C//DTD SVG 1.1//EN" "http://www.w3.org/Graphics/SVG/1.1/DTD/svg11.dtd">
<!-- Uploaded to: SVG Repo, www.svgrepo.com, Transformed by: SVG Repo Mixer Tools -->
<svg width="800px" height="800px" viewBox="0 0 64 64" fill="none" xmlns="http://www.w3.org/2000/svg">
<g id="SVGRepo_bgCarrier" stroke-width="0"/>
<g id="SVGRepo_tracerCarrier" stroke-linecap="round" stroke-linejoin="round"/>
<g id="SVGRepo_iconCarrier"> <path d="M54.95 17.541C54.8112 17.2516 54.605 16.9997 54.3488 16.8065C54.0925 16.6132 53.7937 16.4843 53.4773 16.4304C53.1609 16.3765 52.8362 16.3993 52.5304 16.4968C52.2247 16.5944 51.9468 16.7638 51.72 16.991L44.06 24.711C43.7005 25.0612 43.2189 25.258 42.717 25.2599C42.2151 25.2617 41.7321 25.0685 41.37 24.721L39.52 22.851C39.1595 22.4841 38.9576 21.9903 38.9576 21.476C38.9576 20.9616 39.1595 20.4679 39.52 20.101L47.18 12.371C47.4046 12.1464 47.5719 11.8711 47.6676 11.5682C47.7634 11.2653 47.7848 10.9439 47.73 10.631C47.6753 10.3167 47.5471 10.0197 47.356 9.76429C47.1648 9.50885 46.9161 9.30214 46.63 9.16097C43.3357 7.57356 39.6278 7.05468 36.0242 7.67678C32.4207 8.29888 29.1014 10.0309 26.53 12.631C24.1255 15.0688 22.4713 18.1457 21.764 21.496C21.0567 24.8463 21.3261 28.3292 22.54 31.531L9.62 44.551C8.5148 45.6674 7.89484 47.175 7.89484 48.746C7.89484 50.317 8.5148 51.8245 9.62 52.941L11.47 54.801C12.0169 55.3553 12.6685 55.7955 13.3869 56.0959C14.1053 56.3963 14.8763 56.551 15.655 56.551C16.4337 56.551 17.2047 56.3963 17.9231 56.0959C18.6415 55.7955 19.2931 55.3553 19.84 54.801L32.74 41.801C35.5304 42.864 38.5452 43.2005 41.5013 42.779C44.4574 42.3574 47.258 41.1916 49.64 39.391C52.8811 36.8982 55.1742 33.3736 56.1397 29.4003C57.1053 25.4271 56.6856 21.2432 54.95 17.541Z" fill="#00E3A5"/> </g>
</svg>